<?xml version="1.0" standalone="no"?>
<!DOCTYPE svg PUBLIC "-//W3C//DTD SVG 20010904//EN"
 "http://www.w3.org/TR/2001/REC-SVG-20010904/DTD/svg10.dtd">
<svg version="1.0" xmlns="http://www.w3.org/2000/svg"
 width="500.000000pt" height="500.000000pt" viewBox="0 0 500.000000 500.000000"
 preserveAspectRatio="xMidYMid meet">

<g transform="translate(0.000000,500.000000) scale(0.100000,-0.100000)"
fill="#000000" stroke="none">
<path d="M2419 4986 c-101 -28 -192 -105 -246 -208 -24 -47 -27 -64 -28 -148
0 -86 3 -101 31 -160 l31 -65 -100 -50 c-129 -64 -137 -78 -137 -223 0 -70 5
-112 14 -131 19 -36 72 -76 147 -110 l60 -27 -113 -39 c-120 -40 -196 -75
-291 -132 -45 -27 -61 -33 -70 -24 -8 8 -12 53 -12 129 -1 76 -5 125 -14 140
-17 32 -157 198 -250 297 -41 44 -114 128 -163 187 -90 109 -133 148 -163 148
-49 0 -174 -97 -345 -269 -127 -128 -200 -223 -200 -260 0 -29 58 -90 165
-176 50 -40 160 -132 245 -205 85 -73 179 -149 209 -169 54 -36 56 -36 173
-40 65 -2 118 -6 118 -9 0 -3 -18 -26 -39 -52 -126 -150 -245 -402 -276 -583
-4 -26 -13 -41 -28 -46 -29 -12 -73 -59 -86 -94 -16 -42 -14 -271 3 -310 16
-37 50 -72 86 -85 21 -8 30 -26 58 -118 40 -129 87 -227 169 -351 58 -89 60
-92 29 -76 -201 104 -481 384 -568 569 -21 45 -38 89 -38 98 0 57 -40 -44 -79
-199 -18 -70 -41 -286 -41 -380 0 -155 38 -334 95 -447 26 -52 92 -138 105
-138 4 0 11 15 14 33 3 17 15 47 26 65 l20 33 79 -103 78 -103 -35 -40 c-19
-22 -69 -78 -111 -124 -104 -114 -113 -130 -105 -180 13 -84 78 -141 158 -141
36 0 46 7 111 72 39 40 94 99 123 131 l52 59 83 -77 c206 -190 449 -314 777
-396 108 -27 147 -47 194 -100 39 -43 135 -228 158 -306 13 -45 28 -57 28 -23
0 12 26 78 57 148 49 108 66 136 118 188 54 54 67 62 130 78 399 100 634 222
871 448 l71 68 49 -52 c27 -29 73 -81 103 -116 30 -35 66 -69 82 -77 90 -47
209 31 209 138 0 49 -20 77 -147 213 -57 60 -103 114 -103 119 0 12 115 165
126 168 10 3 45 -68 53 -105 l6 -30 48 61 c57 72 90 143 122 264 61 226 33
555 -66 791 l-33 78 -16 -59 c-22 -82 -50 -133 -132 -241 -94 -124 -285 -294
-400 -357 -53 -29 -54 -27 -2 45 72 101 194 383 194 448 0 13 15 29 43 45 66
39 72 59 72 221 0 128 -2 144 -22 176 -12 19 -35 43 -51 52 -24 14 -30 26 -35
65 -21 167 -162 456 -294 603 l-45 50 109 0 c132 0 173 17 279 111 40 35 136
118 215 184 322 269 318 265 282 338 -49 97 -324 396 -430 466 -83 55 -114 40
-245 -122 -46 -56 -113 -133 -149 -172 -120 -128 -249 -285 -265 -323 -11 -26
-16 -66 -15 -137 2 -145 -2 -148 -109 -89 -120 67 -197 101 -291 128 l-82 23
89 44 c120 60 128 72 132 209 5 158 -13 186 -162 249 -36 15 -68 30 -71 33 -3
2 10 34 27 69 30 58 33 72 32 149 -2 186 -105 317 -287 366 -62 17 -107 16
-168 0z m-126 -248 c-18 -36 -25 -155 -10 -195 5 -14 4 -23 -1 -23 -16 0 -35
88 -29 135 8 55 32 115 47 115 6 0 3 -13 -7 -32z m399 -54 c13 -44 2 -121 -23
-155 -29 -42 -34 -30 -8 20 21 42 23 111 4 155 -6 14 -5 18 5 14 8 -2 18 -18
22 -34z m-144 -10 c34 -23 27 -83 -10 -104 -25 -13 -31 -13 -55 0 -38 21 -45
81 -11 104 12 9 29 16 38 16 9 0 26 -7 38 -16z m1372 -245 c0 -6 -100 -127
-221 -268 -122 -141 -229 -274 -239 -296 l-19 -40 0 31 c-1 19 10 44 27 66 58
76 437 518 444 518 5 0 8 -5 8 -11z m-990 -199 c0 -7 -142 -10 -405 -10 l-405
0 0 -70 c0 -40 -4 -70 -10 -70 -6 0 -10 33 -10 80 l0 80 415 0 c270 0 415 -3
415 -10z m-1915 -395 c157 -130 282 -227 298 -231 35 -7 22 -24 -13 -17 -14 2
-125 86 -247 186 -121 100 -244 200 -272 222 -45 36 -65 65 -43 65 4 0 129
-101 277 -225z m1915 205 c0 -6 -138 -10 -394 -10 -253 0 -397 4 -401 10 -4 7
130 10 394 10 261 0 401 -3 401 -10z m-1602 -186 c102 -96 133 -110 184 -83
19 10 20 9 13 -7 -23 -55 -18 -81 26 -131 24 -26 52 -59 64 -73 20 -24 20 -24
0 -10 -11 8 -43 36 -72 62 -56 52 -91 61 -131 32 -25 -18 -26 -17 -11 25 18
50 3 80 -89 176 -48 49 -101 106 -117 125 -28 33 -28 33 15 -6 25 -22 78 -71
118 -110z m2415 23 c-126 -127 -143 -155 -125 -207 13 -35 13 -35 -24 -15 -38
19 -58 12 -124 -44 -85 -73 -91 -71 -22 4 64 72 75 102 52 146 -12 22 -11 23
25 9 15 -6 38 -7 52 -4 14 4 82 58 151 120 69 63 128 114 131 114 3 0 -50 -55
-116 -123z m-1322 -14 c5 -15 7 -38 4 -51 -6 -23 -7 -24 -25 -7 -27 24 -25 13
5 -31 24 -35 35 -104 17 -104 -18 0 -52 42 -61 77 -14 51 -14 116 1 131 21 21
48 14 59 -15z m119 -2 c6 -16 9 -39 5 -51 -6 -20 -8 -21 -26 -4 -26 24 -24 10
6 -34 31 -46 34 -92 5 -92 -37 0 -73 118 -56 184 9 38 50 36 66 -3z m118 -4
c7 -15 10 -37 7 -48 -6 -19 -8 -20 -26 -3 -25 23 -24 15 6 -37 30 -52 34 -102
8 -97 -40 7 -80 134 -61 190 13 37 47 35 66 -5z m-85 -64 c5 -26 3 -33 -9 -33
-12 0 -15 6 -10 23 3 12 6 28 6 36 0 22 6 9 13 -26z m-126 5 c-3 -8 -6 -5 -6
6 -1 11 2 17 5 13 3 -3 4 -12 1 -19z m-114 -12 c8 -20 -65 -61 -139 -81 -32
-8 -59 -14 -60 -12 -6 6 81 89 101 98 34 13 92 10 98 -5z m535 -8 c44 -21 45
-22 21 -31 -41 -16 -183 -14 -204 3 -16 14 -15 16 21 32 53 24 109 22 162 -4z
m-408 -8 c0 -5 -7 -10 -16 -10 -8 0 -12 5 -9 10 3 6 10 10 16 10 5 0 9 -4 9
-10z m-290 -9 c0 -24 -133 -116 -198 -136 -21 -6 -20 -3 13 43 37 52 71 79
114 92 36 11 71 12 71 1z m410 -27 c0 -8 -5 -12 -10 -9 -6 4 -8 11 -5 16 9 14
15 11 15 -7z m477 -20 c52 -39 43 -48 -43 -41 -83 6 -181 34 -167 47 26 26
173 21 210 -6z m-723 -6 c10 -40 7 -45 -34 -52 -22 -3 -77 -18 -122 -32 -278
-88 -519 -287 -656 -544 -60 -111 -122 -296 -122 -362 0 -29 -24 -43 -54 -32
-13 5 -15 14 -11 35 4 15 8 47 10 71 2 24 15 71 29 105 14 35 26 72 26 83 0
12 14 42 32 67 17 25 40 69 50 97 11 28 35 67 53 87 18 21 42 50 52 66 31 49
186 193 237 221 27 15 62 39 77 53 16 15 41 30 55 33 15 4 59 23 98 42 39 19
79 34 89 34 28 0 126 30 132 41 12 19 53 10 59 -13z m538 -19 c43 -16 84 -29
92 -29 8 0 38 -16 67 -35 30 -19 69 -40 89 -46 19 -7 55 -29 80 -49 25 -21 59
-46 76 -56 18 -11 50 -42 72 -71 22 -28 54 -60 70 -72 17 -11 44 -45 61 -75
17 -30 44 -70 61 -89 16 -19 30 -40 30 -47 0 -7 15 -45 34 -84 19 -39 42 -102
50 -139 9 -37 23 -81 31 -97 8 -16 15 -47 15 -68 0 -35 -3 -41 -26 -46 -15 -4
-28 -6 -29 -4 -1 2 -10 41 -19 87 -21 105 -38 154 -86 258 -102 219 -295 419
-510 528 -82 41 -232 92 -300 101 -46 6 -51 9 -46 28 3 12 6 26 6 33 0 19 95
5 182 -28z m-496 -17 c-9 -8 -26 10 -26 26 1 15 2 15 15 -2 8 -11 13 -21 11
-24z m108 23 c3 -8 1 -15 -4 -15 -6 0 -10 7 -10 15 0 8 2 15 4 15 2 0 6 -7 10
-15z m131 -23 c-8 -8 -25 10 -25 26 0 13 2 13 14 -4 8 -10 13 -21 11 -22z
m-650 -8 c-28 -44 -97 -107 -144 -133 l-43 -23 34 63 c19 34 46 71 59 81 26
20 101 49 108 42 2 -2 -4 -15 -14 -30z m615 26 c0 -5 -5 -10 -11 -10 -5 0 -7
5 -4 10 3 6 8 10 11 10 2 0 4 -4 4 -10z m595 -45 c17 -9 45 -29 60 -45 l29
-30 -30 0 c-43 0 -132 28 -181 57 -24 14 -43 27 -43 29 0 12 136 2 165 -11z
m-578 -62 c8 -21 26 -66 39 -100 l24 -63 -34 0 c-25 0 -35 5 -39 20 -4 16 -14
20 -45 20 -32 0 -42 -4 -47 -20 -4 -14 -15 -20 -36 -20 -16 0 -29 2 -29 4 0 2
20 47 45 100 42 91 46 96 75 96 26 0 33 -6 47 -37z m-197 -73 c7 -50 11 -92 9
-94 -2 -2 -15 -6 -29 -8 -23 -3 -25 1 -36 72 -18 110 -17 118 9 122 12 2 25 3
28 1 3 -1 12 -43 19 -93z m374 76 c33 -14 35 -17 41 -80 4 -36 11 -66 15 -66
3 0 14 27 24 61 15 55 18 60 39 53 12 -3 23 -7 24 -8 1 0 -11 -43 -25 -94
l-27 -93 -30 6 c-41 8 -44 13 -58 96 -14 80 -17 80 -37 4 -16 -60 -22 -69 -47
-61 -19 6 -19 9 6 101 14 52 29 95 34 95 4 0 23 -6 41 -14z m-477 -90 c26 -79
28 -96 16 -100 -30 -12 -42 -5 -53 30 -9 27 -16 34 -29 29 -9 -4 -24 -9 -33
-12 -15 -4 -15 -9 -3 -44 14 -38 14 -39 -11 -45 -14 -4 -27 -4 -30 -1 -3 2
-18 42 -33 88 l-29 84 22 12 c30 18 34 16 41 -17 8 -37 17 -42 50 -34 27 7 29
21 10 66 -5 13 -1 20 16 27 13 5 26 10 29 10 3 1 20 -41 37 -93z m-507 77 c0
-22 -64 -114 -106 -155 -27 -26 -49 -46 -51 -44 -7 6 31 113 49 139 25 35 108
81 108 60z m1527 -35 c34 -10 122 -100 104 -106 -19 -6 -156 59 -196 93 l-40
35 50 -6 c28 -3 65 -10 82 -16z m-1263 -53 c4 -10 -3 -20 -19 -27 -14 -6 -25
-15 -25 -20 0 -5 16 -34 35 -64 41 -64 42 -70 14 -85 -24 -12 -21 -16 -70 68
-30 53 -30 53 -59 38 -24 -12 -30 -13 -40 0 -9 11 -3 19 32 41 24 14 57 35 73
45 37 23 51 24 59 4z m1025 -21 c19 -16 31 -35 31 -50 0 -38 -44 -28 -51 11
-5 22 -49 35 -49 14 0 -6 16 -29 35 -50 41 -45 43 -61 14 -90 -16 -16 -29 -20
-55 -16 -58 10 -112 65 -98 101 8 21 54 -1 54 -25 0 -23 31 -41 50 -29 11 7 6
17 -23 49 -57 64 -47 111 24 111 26 0 47 -8 68 -26z m-1449 -29 c0 -29 -57
-140 -93 -180 l-35 -40 9 60 c13 81 25 110 66 145 37 33 53 38 53 15z m1848
-52 c35 -26 56 -55 67 -91 l7 -23 -51 25 c-56 29 -111 74 -141 116 l-20 28 53
-15 c28 -9 67 -26 85 -40z m-743 -27 c362 -99 619 -436 619 -811 0 -97 -28
-265 -44 -265 -15 0 -119 228 -149 325 -40 133 -60 252 -68 413 -3 72 -8 132
-10 132 -13 0 -190 -73 -250 -103 l-71 -36 -5 40 c-10 75 -64 109 -176 109
-81 0 -222 -34 -331 -81 -82 -34 -229 -111 -272 -140 -14 -11 -29 -19 -32 -19
-10 0 -7 35 4 46 6 6 -5 26 -31 57 -50 58 -47 69 34 140 122 107 238 166 397
203 75 18 306 11 385 -10z m-826 -51 c33 -36 61 -69 60 -73 0 -4 -12 -17 -28
-29 l-27 -21 -72 28 c-40 15 -72 26 -72 24 0 -2 20 -22 45 -45 48 -44 54 -70
19 -75 -16 -3 -37 13 -79 62 l-58 66 26 25 25 26 71 -26 c39 -14 71 -22 71
-18 0 4 -18 25 -40 46 -49 47 -51 69 -9 74 4 1 34 -28 68 -64z m1403 -32 c36
-39 58 -73 58 -93 0 -16 -47 -60 -64 -60 -9 0 -31 14 -49 30 -41 35 -48 36
-72 10 -17 -19 -18 -19 -36 3 -18 22 -18 22 49 84 37 34 69 62 72 63 3 0 22
-17 42 -37z m-1827 -74 c-9 -35 -28 -84 -43 -109 l-26 -45 -8 53 c-10 63 11
122 58 166 37 34 41 20 19 -65z m2059 53 c58 -31 103 -83 112 -130 9 -43 -4
-41 -64 13 -46 42 -122 146 -104 144 4 0 29 -13 56 -27z m-1809 -124 c41 -29
75 -57 75 -63 0 -5 -6 -18 -13 -27 -12 -15 -19 -13 -78 28 -89 62 -93 67 -80
93 7 11 14 21 16 21 3 0 39 -23 80 -52z m-361 -192 c-9 -28 -20 -54 -23 -59
-4 -4 -13 21 -20 57 -14 73 -7 116 31 168 l23 33 3 -74 c2 -48 -3 -90 -14
-125z m2319 96 c22 -24 46 -87 47 -122 1 -53 -120 95 -145 179 -7 23 -6 23 36
-7 24 -16 52 -39 62 -50z m-231 37 l18 -30 -62 -80 c-34 -43 -65 -79 -70 -79
-5 0 -13 11 -20 25 -8 18 -8 28 1 39 9 11 8 22 -6 51 -14 29 -22 36 -39 32
-16 -3 -26 3 -35 20 -7 12 -10 25 -8 27 4 3 139 22 184 25 13 0 26 -10 37 -30z
m-1038 15 c22 -8 20 -41 -2 -46 -26 -7 -47 18 -30 37 16 17 13 16 32 9z m-527
-57 l42 -52 -39 -19 c-22 -11 -41 -18 -43 -15 -8 8 -16 139 -9 138 4 0 26 -23
49 -52z m753 42 c50 -11 90 -43 90 -71 0 -17 -2 -17 -40 -2 -47 19 -106 23
-167 11 -43 -9 -43 -9 -43 21 0 29 3 31 53 40 28 5 54 10 57 11 3 0 25 -4 50
-10z m-1002 -11 c7 -7 12 -21 12 -31 0 -16 3 -17 14 -8 11 10 24 9 55 0 40
-12 40 -12 26 -40 -14 -26 -17 -27 -51 -16 -29 9 -37 8 -45 -4 -14 -22 -11
-27 21 -44 31 -16 36 -30 20 -55 -8 -13 -22 -8 -95 27 -47 24 -85 48 -85 53 0
15 39 92 58 113 17 20 53 22 70 5z m1420 -20 c-3 -31 -7 -34 -88 -63 -47 -17
-117 -49 -155 -70 -39 -22 -73 -41 -77 -43 -12 -5 -10 36 2 59 6 10 39 33 73
51 59 30 223 97 240 98 5 0 7 -15 5 -32z m-1207 -118 c11 0 19 -6 19 -13 0 -7
67 -224 149 -482 199 -628 210 -665 200 -665 -20 0 -122 51 -181 91 -180 121
-312 322 -352 538 -35 184 -10 358 76 530 l53 106 9 -52 c7 -42 13 -53 27 -53z
m487 73 c47 -35 66 -69 66 -122 0 -86 -58 -141 -149 -141 -70 0 -115 25 -143
80 -40 77 -14 156 63 192 50 23 125 19 163 -9z m-408 -110 c0 -10 -6 -10 -24
-2 -30 14 -40 46 -18 59 13 7 20 3 29 -18 7 -15 12 -33 13 -39z m780 41 c6 -6
8 -22 5 -36 -6 -25 -9 -25 -68 -21 -34 3 -78 1 -99 -5 -33 -9 -37 -8 -42 12
-10 36 -7 44 22 55 34 13 168 9 182 -5z m1036 -86 c8 -15 14 -53 14 -85 l-1
-58 -21 25 c-29 34 -75 137 -83 185 l-7 40 42 -40 c23 -22 48 -52 56 -67z
m-2432 61 c13 -66 4 -209 -13 -209 -17 0 -41 75 -41 126 0 53 21 114 39 114 5
0 11 -14 15 -31z m740 17 c6 2 11 -6 11 -20 0 -31 -37 -41 -54 -14 -7 11 -7
18 -1 18 5 0 10 8 10 17 0 13 3 14 11 6 6 -6 17 -9 23 -7z m1476 -5 c0 -5 3
-16 6 -25 4 -11 -11 -19 -64 -35 -73 -22 -89 -39 -72 -72 13 -23 35 -24 107
-3 30 9 56 14 58 12 2 -1 5 -14 7 -28 3 -23 -2 -26 -66 -43 -88 -24 -112 -18
-136 36 -23 50 -25 86 -6 113 22 30 166 69 166 45z m-1551 -59 c84 -166 214
-581 245 -782 4 -26 -192 551 -280 823 -12 36 7 15 35 -41z m1081 44 c0 -8 3
-21 6 -30 4 -11 -2 -17 -23 -21 -91 -20 -168 -50 -241 -94 l-82 -49 0 32 c0
29 6 36 63 68 91 52 105 59 177 84 77 27 100 29 100 10z m-1450 -61 c58 -30
61 -122 5 -175 -20 -19 -32 -22 -72 -17 -68 7 -97 43 -91 109 9 87 78 124 158
83z m870 5 c15 0 -1 -36 -21 -48 -16 -10 -19 -9 -19 3 0 8 -5 15 -10 15 -6 0
-5 8 2 20 7 11 19 18 26 15 8 -3 17 -5 22 -5z m-523 -68 c12 -7 43 -83 43
-104 0 -7 -33 5 -48 17 -2 2 -10 24 -17 49 -14 47 -8 57 22 38z m712 -8 c26
-5 31 -11 31 -34 0 -28 -1 -28 -37 -18 -92 25 -228 -10 -427 -109 -103 -52
-111 -54 -123 -37 -7 10 -13 21 -13 25 0 9 145 86 232 123 112 48 248 68 337
50z m419 -25 c3 -25 -1 -28 -50 -39 -66 -16 -175 -65 -250 -113 -31 -21 -60
-37 -63 -37 -3 0 -5 15 -5 34 0 28 6 38 33 54 97 61 273 133 312 129 13 -1 21
-11 23 -28z m652 -53 c0 -4 -7 -5 -16 -2 -9 3 -18 6 -20 6 -2 0 -4 12 -4 28
l0 27 20 -25 c11 -14 20 -29 20 -34z m-2470 8 c0 -16 -16 -19 -25 -4 -8 13 4
32 16 25 5 -4 9 -13 9 -21z m860 6 c0 -5 6 -7 13 -5 7 3 13 -4 13 -21 1 -17
-2 -24 -11 -20 -7 2 -18 -1 -24 -7 -8 -8 -11 -7 -11 6 0 9 -6 17 -12 18 -10 0
-10 2 0 6 6 2 12 11 12 19 0 8 5 14 10 14 6 0 10 -4 10 -10z m-877 -34 c26 -8
60 -26 77 -40 l31 -25 -25 -7 c-32 -8 -63 2 -103 33 -18 13 -33 20 -33 14 0
-5 5 -13 10 -16 35 -22 -31 -36 -71 -15 -25 14 -24 35 3 54 28 20 52 20 111 2z
m127 -28 c0 -23 -4 -23 -40 4 -40 29 -38 39 5 25 23 -7 35 -16 35 -29z m2290
12 c-18 -14 -27 -15 -32 -7 -5 8 3 16 20 24 36 15 43 6 12 -17z m188 14 c12
-8 22 -19 22 -24 0 -19 -34 -40 -66 -40 -33 0 -45 12 -24 25 6 3 10 11 10 16
0 6 -15 -1 -32 -14 -41 -31 -72 -41 -104 -33 l-24 6 22 22 c25 25 108 57 148
58 14 0 36 -7 48 -16z m-268 -28 c0 -20 -6 -24 -46 -30 -26 -3 -61 -6 -79 -6
l-33 0 6 -45 c4 -40 2 -45 -15 -45 -18 0 -21 9 -27 67 -4 36 -3 70 1 74 8 8
170 17 186 11 4 -2 7 -14 7 -26z m-907 -21 c11 -5 17 -18 17 -42 0 -31 -2 -34
-22 -27 -13 4 -59 7 -103 7 -99 0 -183 -26 -313 -95 -52 -27 -95 -48 -97 -46
-2 2 -5 14 -7 28 -3 21 7 30 72 67 94 54 210 103 269 114 48 8 154 5 184 -6z
m439 -21 c14 -30 5 -39 -51 -49 -45 -8 -199 -80 -273 -128 -46 -29 -57 -33
-62 -21 -14 37 -4 50 73 97 73 45 259 126 289 127 7 0 18 -12 24 -26z m-1632
-12 c0 -15 -5 -33 -11 -39 -19 -19 -6 -57 24 -67 41 -15 81 3 85 37 2 18 -2
29 -12 33 -21 8 -22 64 -1 64 54 0 76 -115 31 -167 -21 -24 -32 -28 -76 -28
-44 0 -55 4 -76 28 -32 38 -34 110 -2 144 28 30 38 29 38 -5z m-226 -8 c5 -12
2 -15 -10 -10 -8 3 -18 6 -20 6 -3 0 -2 5 1 10 9 15 22 12 29 -6z m116 6 c0
-15 -27 -23 -47 -15 -17 7 -16 8 2 15 28 12 45 12 45 0z m2404 1 c3 -5 -7 -11
-22 -14 -31 -6 -37 -3 -27 12 8 13 42 14 49 2z m-85 -5 c-12 -10 -59 -15 -59
-6 0 5 14 10 32 10 17 0 29 -2 27 -4z m-1679 -16 c19 -10 57 -96 47 -106 -3
-3 -15 -3 -26 1 -14 4 -25 23 -36 57 -20 67 -20 67 15 48z m-728 -26 c16 -8
37 -23 48 -34 18 -18 18 -18 -7 -25 -32 -8 -60 1 -100 32 -18 13 -33 20 -33
14 0 -5 5 -13 10 -16 35 -22 -31 -36 -71 -15 -25 14 -24 35 4 55 26 19 102 13
149 -11z m82 -7 c17 -27 -1 -31 -33 -6 -16 13 -30 27 -30 31 -2 12 53 -8 63
-25z m2316 26 c0 -5 -12 -16 -25 -26 -24 -17 -25 -17 -25 2 0 12 8 21 23 24
12 2 23 5 25 6 1 0 2 -2 2 -6z m168 -9 c12 -8 22 -19 22 -24 0 -19 -34 -40
-66 -40 -33 0 -45 12 -24 25 6 3 10 11 10 17 0 6 -7 5 -17 -4 -36 -32 -84 -49
-115 -43 -29 7 -29 7 -11 25 57 52 158 75 201 44z m-290 -70 c16 -3 22 -12 22
-29 0 -24 -3 -25 -54 -25 -29 0 -74 3 -100 6 -39 6 -46 10 -46 29 0 12 2 24 5
27 6 6 135 0 173 -8z m-2283 -15 c20 0 20 0 0 -8 -23 -10 -59 5 -49 20 4 7 10
7 17 0 6 -6 20 -11 32 -12z m1402 15 c11 -3 23 -16 25 -29 5 -23 3 -23 -101
-27 -104 -3 -109 -5 -201 -50 -52 -26 -119 -61 -148 -78 l-52 -32 -9 24 c-8
19 -5 27 16 45 41 33 222 122 283 137 57 15 149 20 187 10z m487 -10 c11 -28
7 -31 -71 -59 -89 -31 -194 -82 -271 -131 -29 -19 -55 -34 -57 -34 -3 0 -5 13
-5 29 0 33 29 55 151 117 73 37 213 93 235 94 7 0 15 -7 18 -16z m-1794 -3 c0
-13 -27 -21 -47 -14 -15 6 -15 7 3 14 27 11 44 11 44 0z m2328 -6 c-2 -1 -18
-5 -35 -8 -23 -5 -33 -3 -33 6 0 9 11 12 36 9 19 -2 34 -5 32 -7z m82 6 c0 -5
-13 -11 -30 -13 -29 -4 -37 1 -23 15 10 10 53 8 53 -2z m-2536 -32 c23 -6 57
-23 76 -39 l33 -28 -31 -7 c-31 -6 -78 11 -114 43 -11 9 -18 10 -18 4 0 -6 5
-14 10 -17 20 -13 9 -25 -22 -25 -60 1 -91 46 -45 68 29 14 59 14 111 1z m119
-11 c16 -8 25 -48 10 -48 -5 1 -26 17 -48 36 l-40 36 30 -8 c17 -4 38 -11 48
-16z m2322 14 c-6 -4 -22 -18 -37 -31 l-28 -24 0 22 c0 13 9 25 23 31 28 11
54 13 42 2z m166 -11 c23 -19 24 -19 5 -40 -12 -13 -31 -21 -53 -21 -32 0 -43
12 -23 25 6 3 10 11 10 17 0 6 -7 5 -17 -4 -36 -32 -84 -49 -115 -43 l-30 7
23 24 c25 27 95 52 145 53 18 1 42 -8 55 -18z m-411 -50 c0 -10 -12 -26 -26
-35 -16 -11 -24 -25 -22 -38 5 -34 25 -32 44 4 24 47 44 68 67 68 55 0 75 -75
37 -137 -20 -34 -60 -46 -60 -19 0 25 12 46 26 46 8 0 14 10 14 25 0 38 -27
31 -49 -13 -28 -54 -46 -68 -79 -56 -36 13 -49 52 -33 103 6 22 18 47 27 56
22 21 54 19 54 -4z m-1335 -56 c8 -17 17 -44 21 -59 l7 -28 -30 16 c-23 11
-33 26 -42 60 -14 57 -15 55 10 49 12 -3 27 -20 34 -38z m-824 25 c14 0 51
-79 65 -139 l13 -54 -50 49 c-46 45 -69 91 -69 138 0 12 5 16 16 12 9 -3 20
-6 25 -6z m109 -32 c48 -185 105 -310 199 -435 67 -90 183 -203 267 -260 120
-82 300 -158 422 -178 39 -6 42 -9 42 -39 l0 -31 -62 6 c-35 4 -90 18 -123 32
-33 15 -67 27 -76 27 -10 0 -46 17 -80 38 -35 22 -77 42 -94 46 -16 4 -48 25
-71 45 -22 21 -54 47 -70 57 -48 31 -185 176 -210 222 -14 24 -40 64 -59 89
-19 25 -35 51 -35 58 0 7 -15 43 -34 81 -18 38 -39 96 -46 129 -7 33 -21 76
-31 96 -20 41 -12 59 28 59 18 0 24 -8 33 -42z m1332 17 c5 -24 3 -25 -48 -25
-113 0 -201 -31 -348 -124 -67 -43 -91 -54 -98 -44 -20 32 -6 48 90 104 147
87 220 113 318 114 79 0 82 -1 86 -25z m498 16 c0 -5 3 -16 6 -24 4 -10 -21
-27 -88 -60 -51 -25 -156 -85 -233 -133 -226 -140 -316 -175 -365 -144 -19 12
-13 17 72 54 40 17 145 75 233 128 160 96 337 188 362 188 7 0 13 -4 13 -9z
m439 0 c9 -6 12 -22 8 -52 -7 -61 -62 -210 -97 -266 -16 -25 -35 -62 -41 -82
-7 -20 -29 -56 -49 -81 -21 -25 -46 -59 -56 -76 -11 -18 -43 -50 -71 -73 -29
-22 -63 -55 -75 -72 -13 -17 -41 -40 -63 -51 -22 -11 -61 -38 -87 -59 -26 -21
-52 -39 -59 -39 -6 0 -45 -16 -85 -35 -40 -19 -101 -41 -136 -48 -35 -8 -77
-21 -95 -30 -39 -21 -92 -22 -99 -3 -8 21 14 56 34 56 38 0 181 43 264 80 319
139 566 433 644 764 18 77 29 88 63 67z m85 -13 c11 -44 6 -92 -16 -136 -20
-42 -22 -44 -30 -23 -4 13 -11 54 -14 92 -7 66 -6 69 17 78 34 14 36 13 43
-11z m-2099 -9 c6 -19 -7 -38 -26 -39 -13 0 -18 44 -6 52 19 12 25 10 32 -13z
m12 -84 c12 -8 29 -35 38 -60 15 -37 16 -50 5 -74 -16 -39 -54 -63 -100 -65
-46 -1 -68 16 -92 71 -18 42 -14 82 11 97 15 10 32 -30 25 -59 -12 -50 30 -69
86 -40 38 20 40 58 6 80 -26 18 -39 41 -30 56 8 13 27 11 51 -6z m1063 -9 c0
-16 -53 -52 -149 -100 -57 -29 -73 -34 -77 -22 -12 30 17 54 113 94 111 47
113 47 113 28z m550 -1 c0 -3 -14 -33 -31 -67 -107 -213 -313 -371 -556 -429
-73 -18 -110 -20 -220 -17 -73 3 -136 8 -140 11 -4 4 -28 73 -55 154 -54 167
-61 143 57 218 39 24 87 51 108 60 l37 15 0 -72 c1 -124 46 -188 134 -188 77
0 207 60 403 186 80 52 236 134 255 134 4 0 8 -2 8 -5z m414 -116 c1 -69 -2
-79 -29 -115 l-30 -39 -3 64 c-4 83 33 217 51 186 6 -11 11 -54 11 -96z
m-2283 -63 c16 -33 27 -62 25 -64 -2 -2 -27 13 -55 34 -59 42 -91 96 -91 151
l1 38 46 -50 c25 -27 59 -77 74 -109z m1977 94 c34 -16 66 -30 71 -30 4 0 13
11 19 25 7 16 17 23 27 19 21 -8 20 -14 -22 -99 -26 -51 -43 -74 -53 -72 -16
3 -16 5 -5 48 6 23 1 27 -57 54 -35 16 -65 31 -67 32 -5 3 16 53 22 53 2 0 31
-13 65 -30z m-1231 -6 c16 -4 27 -21 39 -56 9 -27 14 -51 11 -54 -2 -2 -15 0
-28 5 -18 6 -29 23 -41 60 -9 28 -13 51 -10 51 4 0 17 -3 29 -6z m1198 -159
l40 -74 -23 -24 -23 -24 -97 25 c-53 14 -99 27 -101 28 -10 9 33 43 57 46 34
4 70 53 56 76 -8 13 -7 23 4 40 l16 24 15 -21 c9 -12 34 -55 56 -96z m-1578
66 c10 -16 9 -22 -3 -32 -12 -10 -17 -8 -28 7 -10 13 -11 23 -4 31 14 18 21
16 35 -6z m1841 -56 c3 -81 -27 -148 -80 -176 -16 -8 -17 -6 -12 23 12 66 34
132 59 174 14 24 27 44 28 44 2 0 4 -29 5 -65z m-2774 -2 c4 -16 23 -74 43
-130 41 -115 38 -112 162 -114 102 -1 120 -15 27 -21 -86 -6 -112 -22 -100
-62 12 -38 113 -203 173 -283 67 -89 241 -264 348 -350 145 -117 331 -208 533
-260 98 -25 268 -41 313 -29 64 16 127 101 146 199 6 27 9 -53 9 -223 l1 -265
-18 55 c-42 130 -109 188 -235 201 -203 20 -362 65 -531 149 -129 64 -240 148
-392 294 -162 156 -217 230 -371 496 -18 31 -40 -5 -88 -139 -2 -8 -7 -12 -10
-9 -3 3 9 60 26 127 21 83 28 127 21 139 -14 27 -81 231 -81 248 0 24 17 7 24
-23z m3301 -96 c-21 -62 -42 -120 -47 -129 -5 -12 2 -58 22 -139 17 -67 29
-124 26 -127 -6 -5 -6 -4 -31 68 -18 51 -41 90 -54 90 -5 0 -37 -49 -71 -109
-34 -60 -91 -147 -125 -193 -76 -101 -270 -290 -392 -382 -187 -141 -455 -242
-692 -262 -71 -6 -81 -5 -81 10 0 13 10 16 49 16 187 0 501 110 680 238 133
95 339 292 421 402 56 75 167 259 175 291 9 38 -15 51 -103 57 -89 6 -74 20
23 21 107 2 131 9 143 45 80 237 83 244 89 228 3 -7 -12 -63 -32 -125z m-2713
71 c40 -33 108 -122 108 -142 0 -3 -27 7 -59 24 -62 31 -90 62 -109 119 -22
63 -18 63 60 -1z m433 -23 c35 -36 48 -86 24 -100 -15 -10 -49 24 -42 41 6 17
-14 44 -33 44 -20 0 -17 -24 6 -62 24 -40 25 -61 4 -82 -25 -26 -65 -19 -101
16 -33 32 -45 80 -23 93 15 9 41 -15 38 -34 -3 -21 10 -41 28 -41 15 0 20 35
5 45 -5 3 -15 21 -21 41 -10 30 -9 38 6 55 27 30 68 24 109 -16z m382 -29 c12
-12 35 -87 28 -94 -2 -2 -13 -1 -25 3 -20 6 -37 35 -55 93 -6 22 -5 23 17 17
12 -4 28 -12 35 -19z m1267 -83 c-10 -79 -23 -110 -65 -147 -66 -61 -72 -46
-24 61 20 44 81 133 91 133 2 0 1 -21 -2 -47z m-1975 -34 c50 -29 141 -112
141 -128 0 -18 -124 33 -154 64 -31 31 -63 95 -48 95 4 0 31 -14 61 -31z
m1546 -31 c35 16 36 16 24 -15 -8 -22 -6 -30 12 -50 l22 -23 -36 0 c-30 0 -40
-5 -49 -25 -15 -33 -26 -32 -30 2 -2 19 -10 29 -23 31 -35 7 -40 21 -11 32 25
9 26 13 20 47 l-7 38 27 -24 c22 -21 29 -23 51 -13z m-1033 -18 c-3 -24 0 -32
22 -41 34 -16 33 -27 -1 -31 -19 -2 -29 -10 -31 -23 -7 -35 -20 -39 -33 -11
-11 24 -17 27 -46 21 -38 -7 -42 0 -11 26 18 17 20 23 10 45 -16 34 -16 34 18
21 25 -9 33 -9 47 6 24 24 30 21 25 -13z m1329 -75 c-9 -30 -28 -70 -43 -89
-26 -33 -94 -73 -105 -62 -11 10 62 117 109 162 26 24 49 44 52 44 2 0 -3 -25
-13 -55z m-548 34 c33 -15 57 -60 57 -108 0 -54 -26 -81 -78 -81 -53 0 -83 34
-89 97 -4 41 -1 51 19 70 12 11 32 23 43 26 11 3 21 5 22 6 1 0 13 -4 26 -10z
m-1369 -40 c14 -17 26 -35 26 -40 0 -8 -41 -56 -125 -147 -9 -11 -23 0 -68 56
-32 38 -57 74 -57 80 0 5 15 13 33 16 17 3 59 19 92 35 33 16 63 30 67 30 3 1
18 -13 32 -30z m842 7 c3 -8 1 -32 -5 -55 -6 -23 -16 -59 -21 -81 -11 -40 -23
-48 -49 -31 -13 9 -10 40 15 122 3 13 -1 15 -22 11 -21 -4 -25 -1 -22 14 5 29
94 46 104 20z m-624 -31 c35 -14 83 -43 108 -64 l45 -39 -55 6 c-68 6 -121 32
-154 75 -43 56 -36 59 56 22z m809 6 c20 -16 24 -28 24 -76 0 -50 -3 -60 -29
-82 -24 -20 -37 -24 -68 -20 -43 6 -68 22 -68 43 0 17 33 18 59 2 22 -14 51
-4 51 17 0 11 -10 15 -37 15 -67 0 -96 57 -51 100 28 26 88 27 119 1z m174
-23 c4 -24 7 -65 8 -93 2 -41 -1 -50 -17 -53 -23 -5 -36 14 -36 53 -1 57 -10
75 -36 69 -17 -5 -24 -2 -24 9 0 20 49 56 77 57 18 0 23 -7 28 -42z m554 -89
c-12 -24 -31 -55 -43 -67 -37 -41 -126 -78 -126 -53 0 27 173 182 187 167 2
-1 -7 -22 -18 -47z m294 -102 c59 -65 107 -123 107 -129 0 -6 -9 -3 -20 7 -31
28 -205 225 -209 237 -9 25 23 -4 122 -115z m-1581 56 c80 -36 87 -47 30 -51
-74 -4 -110 7 -153 45 -21 19 -39 39 -39 43 0 13 103 -10 162 -37z m-292 31
c0 -9 -214 -244 -222 -244 -16 0 -6 13 99 130 95 107 123 133 123 114z m1402
-86 c-16 -24 -39 -51 -50 -61 -24 -22 -87 -46 -122 -47 -23 0 -21 3 20 45 39
40 146 105 172 105 5 0 -4 -19 -20 -42z m353 -63 c77 -85 77 -86 59 -107 -26
-29 -134 -98 -229 -146 -109 -54 -204 -82 -281 -82 -71 0 -115 15 -169 56 -31
24 -35 31 -35 74 l0 47 58 12 c149 33 309 99 437 180 44 27 80 50 81 51 0 0
36 -38 79 -85z m-1505 -29 c95 -48 205 -89 295 -109 l60 -14 7 -47 c6 -44 4
-50 -20 -72 -98 -86 -251 -86 -427 1 -82 40 -245 143 -245 154 0 5 36 47 81
95 l81 86 41 -25 c23 -15 80 -45 127 -69z m195 73 c22 -5 53 -15 69 -21 l29
-12 -34 -12 c-55 -20 -121 -17 -169 9 -65 34 -63 47 7 47 32 0 76 -5 98 -11z
m275 7 c0 -3 -4 -8 -10 -11 -5 -3 -10 -1 -10 4 0 6 5 11 10 11 6 0 10 -2 10
-4z m50 -4 c0 -12 -63 -92 -68 -87 -3 3 3 25 12 50 13 32 23 45 37 45 10 0 19
-4 19 -8z m240 -1 c0 -5 -16 -28 -35 -51 -38 -46 -47 -33 -19 26 10 21 24 34
35 34 11 0 19 -4 19 -9z m-200 -38 c0 -23 -4 -33 -9 -27 -17 17 -17 64 -1 64
6 0 10 -17 10 -37z m70 20 c-5 -10 -21 -31 -36 -48 l-26 -30 7 35 c9 43 22 60
47 60 15 0 17 -3 8 -17z m50 -13 c0 -16 -4 -30 -9 -30 -12 0 -24 37 -16 50 12
20 25 10 25 -20z m286 -25 c-24 -25 -56 -49 -71 -55 -39 -15 -105 -13 -105 3
0 24 148 94 202 96 12 1 4 -13 -26 -44z m-436 -24 c0 -24 -9 -51 -25 -75 -30
-44 -32 -55 -5 -31 18 17 19 16 25 -7 14 -54 -30 -99 -63 -66 -27 27 -5 153
35 196 27 30 33 26 33 -17z m120 1 c0 -23 -9 -51 -25 -74 -30 -44 -32 -58 -7
-35 31 28 43 -7 20 -58 -12 -27 -36 -33 -56 -13 -28 28 -6 152 34 195 28 31
34 28 34 -15z m117 -13 c-3 -21 -14 -51 -26 -68 -26 -36 -27 -50 -2 -27 18 17
20 16 26 -3 9 -28 -16 -75 -41 -79 -56 -8 -46 142 14 210 22 26 35 11 29 -33z
m-349 35 c52 -14 -1 -64 -68 -64 -37 0 -127 36 -117 47 17 17 142 28 185 17z
m392 -8 c0 -3 -4 -8 -10 -11 -5 -3 -10 -1 -10 4 0 6 5 11 10 11 6 0 10 -2 10
-4z m-139 -79 c-8 -8 -11 -5 -11 9 0 27 14 41 18 19 2 -9 -1 -22 -7 -28z
m1445 -384 c40 -42 55 -63 44 -63 -19 0 -270 274 -270 293 1 7 38 -28 83 -78
45 -49 109 -118 143 -152z m-2787 159 c-137 -158 -226 -252 -240 -252 -9 0 4
21 35 53 28 29 89 96 136 149 47 53 89 94 93 91 4 -2 -7 -21 -24 -41z"/>
<path d="M2532 3541 c-17 -47 -15 -51 13 -51 28 0 30 11 11 55 l-12 30 -12
-34z"/>
<path d="M3262 3228 c-15 -15 3 -48 28 -48 25 0 33 15 20 40 -12 22 -30 26
-48 8z"/>
<path d="M3363 3043 c-19 -4 -21 -7 -11 -29 14 -30 18 -30 46 7 25 31 22 33
-35 22z"/>
<path d="M1585 2998 c-14 -21 -14 -24 2 -35 24 -18 32 -16 39 11 11 46 -14 61
-41 24z"/>
<path d="M2250 2950 c-8 -5 -23 -7 -32 -4 -12 3 -18 0 -18 -10 0 -9 -8 -16
-20 -16 -12 0 -17 -5 -14 -14 3 -8 1 -17 -5 -21 -24 -14 -11 -33 24 -32 45 1
96 -43 87 -76 -5 -20 -4 -20 11 -8 9 7 17 21 17 31 0 10 11 25 24 33 13 9 26
28 29 44 14 71 16 68 -33 68 -25 0 -47 3 -50 7 -3 4 -12 3 -20 -2z"/>
<path d="M1507 2783 c-15 -15 -6 -63 13 -73 34 -18 92 -8 101 16 13 37 -15 64
-65 64 -23 0 -46 -3 -49 -7z"/>
<path d="M3292 1958 c-17 -17 -15 -23 13 -36 41 -19 47 -14 28 18 -19 33 -24
35 -41 18z"/>
<path d="M2791 1661 c-18 -12 -6 -84 19 -106 38 -34 53 14 26 80 -16 37 -22
40 -45 26z"/>
<path d="M2421 1616 c-16 -20 -3 -46 24 -46 29 0 39 25 19 45 -19 19 -28 19
-43 1z"/>
</g>
</svg>
