<svg xmlns="http://www.w3.org/2000/svg" viewBox="0 0 500 500"><g id="freepik--background-complete--inject-61"><rect y="382.4" width="500" height="0.25" style="fill:#ebebeb"></rect><rect x="416.78" y="398.49" width="33.12" height="0.25" style="fill:#ebebeb"></rect><rect x="322.53" y="401.21" width="8.69" height="0.25" style="fill:#ebebeb"></rect><rect x="396.59" y="389.21" width="19.19" height="0.25" style="fill:#ebebeb"></rect><rect x="52.46" y="390.89" width="43.19" height="0.25" style="fill:#ebebeb"></rect><rect x="104.56" y="390.89" width="6.33" height="0.25" style="fill:#ebebeb"></rect><rect x="131.47" y="395.11" width="93.68" height="0.25" style="fill:#ebebeb"></rect><path d="M237,337.8H43.91a5.71,5.71,0,0,1-5.7-5.71V60.66A5.71,5.71,0,0,1,43.91,55H237a5.71,5.71,0,0,1,5.71,5.71V332.09A5.71,5.71,0,0,1,237,337.8ZM43.91,55.2a5.46,5.46,0,0,0-5.45,5.46V332.09a5.46,5.46,0,0,0,5.45,5.46H237a5.47,5.47,0,0,0,5.46-5.46V60.66A5.47,5.47,0,0,0,237,55.2Z" style="fill:#ebebeb"></path><path d="M453.31,337.8H260.21a5.72,5.72,0,0,1-5.71-5.71V60.66A5.72,5.72,0,0,1,260.21,55h193.1A5.71,5.71,0,0,1,459,60.66V332.09A5.71,5.71,0,0,1,453.31,337.8ZM260.21,55.2a5.47,5.47,0,0,0-5.46,5.46V332.09a5.47,5.47,0,0,0,5.46,5.46h193.1a5.47,5.47,0,0,0,5.46-5.46V60.66a5.47,5.47,0,0,0-5.46-5.46Z" style="fill:#ebebeb"></path><path d="M420.85,349.65c.15-1,3.65-25.18-3.36-33.51a7.61,7.61,0,0,0-5.83-2.87c-14.15-.33-16.08,11-16.1,11.15l1.67.26c.06-.41,1.74-10,14.39-9.72a5.86,5.86,0,0,1,4.57,2.26c6.53,7.76,3,31.93,3,32.18Z" style="fill:#ebebeb"></path><path d="M421.7,348.54l1.69-.05c0-.22-.56-22.25,10.29-26.8,10.64-4.46,15.42,4.71,15.62,5.1l1.51-.76c-.05-.11-5.67-11-17.78-5.9C421.11,325.13,421.67,347.59,421.7,348.54Z" style="fill:#ebebeb"></path><path d="M421.65,350.28c0-.36.1-35.2,6.9-45.38,6.52-9.79,17-5.18,17.48-5l.7-1.54c-.12-.05-12.26-5.41-19.59,5.58-7.07,10.61-7.18,44.86-7.18,46.31Z" style="fill:#ebebeb"></path><path d="M409.64,314.11s6.18,2.27,4.34,7.65S392.6,336,392.6,336s-8.18-7.5-.66-19.7S409.47,310.26,409.64,314.11Z" style="fill:#e0e0e0"></path><path d="M428.85,303.06s-4.38-.47-4-3.14,17.05-9.55,26.91,1.57c0,0-6.31,10.84-15.43,11S428.85,303.06,428.85,303.06Z" style="fill:#e0e0e0"></path><path d="M433.36,320.91s-3-2.44.24-3.64,19.3-.85,19.46,15c0,0-18.67,3.11-21-2.94S433.36,320.91,433.36,320.91Z" style="fill:#e0e0e0"></path><polygon points="406.32 382 435.3 382 438.42 350.27 403.19 350.27 406.32 382" style="fill:#ebebeb"></polygon><rect x="401.65" y="346.77" width="38.32" height="7" transform="translate(841.62 700.55) rotate(180)" style="fill:#e0e0e0"></rect><rect x="186" y="56" width="98" height="122" style="fill:#e6e6e6"></rect><rect x="196" y="66" width="78" height="102" style="fill:#ebebeb"></rect><rect x="216" y="86" width="38" height="62" style="fill:#e0e0e0"></rect><polygon points="254 86 232.66 112.5 241.57 121.5 216 148 254 148 246.5 110 254 86" style="fill:#e6e6e6"></polygon><polygon points="216 86 229.94 102 222.97 112 216 86" style="fill:#e6e6e6"></polygon><rect x="82" y="260" width="36" height="45" style="fill:#f0f0f0"></rect><rect x="82" y="259" width="37" height="6" style="fill:#e0e0e0"></rect><rect x="81" y="263" width="39" height="3" style="fill:#ebebeb"></rect><path d="M118,274.73v3.61c-2.74-5.37-11.58-11-15.3-13a1,1,0,1,1,.93-1.76C104.14,263.89,113.25,268.76,118,274.73Z" style="fill:#f0f0f0"></path><path d="M118,287v-3a4.6,4.6,0,0,0,.82-2.95,6.74,6.74,0,0,0-.82-2.72c-2.74-5.37-11.58-11-15.3-13a1,1,0,1,1,.93-1.76c.51.27,9.62,5.14,14.37,11.11a11.5,11.5,0,0,1,2.82,6.21A7.21,7.21,0,0,1,118,287Z" style="fill:#e0e0e0"></path><rect x="133" y="273" width="27" height="32" style="fill:#f0f0f0"></rect><rect x="128" y="268" width="27" height="3" transform="matrix(0.96, -0.27, 0.27, 0.96, -66.47, 47.24)" style="fill:#e0e0e0"></rect><rect x="132" y="273" width="29" height="3" style="fill:#ebebeb"></rect><path d="M160,282.2v2.72c-2-4-8.79-8.27-11.59-9.76a.75.75,0,0,1-.35-1,.81.81,0,0,1,1.07-.31C149.51,274,156,277.71,160,282.2Z" style="fill:#f0f0f0"></path><path d="M160,291.42v-2.23c0-.69.6-1.43.55-2.22a5.25,5.25,0,0,0-.65-2.05c-2.06-4-8.74-8.27-11.54-9.76a.74.74,0,1,1,.69-1.32c.38.2,7.24,3.87,10.82,8.36a8.88,8.88,0,0,1,2.19,4.68C162.16,288.58,161,290.11,160,291.42Z" style="fill:#e0e0e0"></path><rect x="48" y="271" width="27" height="34" style="fill:#e0e0e0"></rect><rect x="48" y="270" width="27" height="5" style="fill:#e0e0e0"></rect><rect x="47" y="273" width="29" height="3" style="fill:#ebebeb"></rect><path d="M48,282.2v2.72c2-4,8.82-8.27,11.62-9.76a.77.77,0,0,0,.37-1,.83.83,0,0,0-1.09-.31C58.51,274,52,277.71,48,282.2Z" style="fill:#f0f0f0"></path><path d="M48,291.42v-2.23c0-.69-.57-1.43-.52-2.22a5.3,5.3,0,0,1,.67-2.05c2.06-4,8.75-8.27,11.55-9.76a.75.75,0,0,0,.33-1,.74.74,0,0,0-1-.31c-.39.2-7.25,3.87-10.82,8.36A8.88,8.88,0,0,0,46,286.88C45.87,288.58,47,290.11,48,291.42Z" style="fill:#ebebeb"></path><rect x="184" y="262" width="36" height="43" style="fill:#f0f0f0"></rect><rect x="182" y="263" width="39" height="3" style="fill:#ebebeb"></rect><path d="M184,274.73v3.61c3-5.37,11.5-11,15.22-13a1,1,0,0,0,.38-1.35.93.93,0,0,0-1.29-.41C197.8,263.89,189,268.76,184,274.73Z" style="fill:#f0f0f0"></path><path d="M184,287v-3a3.18,3.18,0,0,1-.9-2.95,6.65,6.65,0,0,1,.78-2.72c2.74-5.37,11.55-11,15.27-13a1,1,0,1,0-.94-1.76c-.51.27-9.62,5.14-14.37,11.11a11.35,11.35,0,0,0-2.74,6.21A7.32,7.32,0,0,0,184,287Z" style="fill:#e0e0e0"></path><path d="M238.57,278c6.5,8.06,6.36,19-.3,24.33s-17.34,3.19-23.84-4.87-6.36-19,.3-24.33S232.07,270,238.57,278Z" style="fill:#e0e0e0"></path><rect x="89" y="337" width="36" height="45" style="fill:#f0f0f0"></rect><rect x="89" y="336" width="37" height="6" style="fill:#e0e0e0"></rect><rect x="88" y="340" width="39" height="3" style="fill:#ebebeb"></rect><path d="M125,351.73v3.61c-2.74-5.37-11.58-11-15.3-13a1,1,0,1,1,.93-1.76C111.14,340.89,120.25,345.76,125,351.73Z" style="fill:#f0f0f0"></path><path d="M125,364v-3a4.6,4.6,0,0,0,.82-2.95,6.74,6.74,0,0,0-.82-2.72c-2.74-5.37-11.58-11-15.3-13a1,1,0,1,1,.93-1.76c.51.27,9.62,5.14,14.37,11.11a11.5,11.5,0,0,1,2.82,6.21A7.21,7.21,0,0,1,125,364Z" style="fill:#e0e0e0"></path><rect x="140" y="348" width="27" height="34" style="fill:#f0f0f0"></rect><rect x="140" y="347" width="28" height="5" style="fill:#e0e0e0"></rect><rect x="139" y="350" width="29" height="3" style="fill:#ebebeb"></rect><path d="M167,359.2v2.72c-2-4-8.79-8.27-11.59-9.76a.75.75,0,0,1-.35-1,.81.81,0,0,1,1.07-.31C156.51,351,163,354.71,167,359.2Z" style="fill:#f0f0f0"></path><path d="M167,368.42v-2.23c0-.69.6-1.43.55-2.22a5.25,5.25,0,0,0-.65-2.05c-2.06-4-8.74-8.27-11.54-9.76a.74.74,0,1,1,.69-1.32c.38.2,7.24,3.87,10.82,8.36a8.88,8.88,0,0,1,2.19,4.68C169.16,365.58,168,367.11,167,368.42Z" style="fill:#e0e0e0"></path><rect x="55" y="348" width="27" height="34" style="fill:#f0f0f0"></rect><rect x="54" y="347" width="28" height="5" style="fill:#e0e0e0"></rect><rect x="54" y="350" width="29" height="3" style="fill:#ebebeb"></rect><path d="M55,359.2v2.72c2-4,8.82-8.27,11.62-9.76a.77.77,0,0,0,.37-1,.83.83,0,0,0-1.09-.31C65.51,351,59,354.71,55,359.2Z" style="fill:#f0f0f0"></path><path d="M55,368.42v-2.23c0-.69-.57-1.43-.52-2.22a5.3,5.3,0,0,1,.67-2.05c2.06-4,8.75-8.27,11.55-9.76a.75.75,0,0,0,.33-1,.74.74,0,0,0-1-.31c-.39.2-7.25,3.87-10.82,8.36A8.88,8.88,0,0,0,53,363.88C52.87,365.58,54,367.11,55,368.42Z" style="fill:#e0e0e0"></path><rect x="180" y="337" width="36" height="45" style="fill:#f0f0f0"></rect><rect x="180" y="336" width="37" height="6" style="fill:#e0e0e0"></rect><rect x="179" y="340" width="39" height="3" style="fill:#ebebeb"></rect><path d="M200.66,341.09c-.39-.86-9.74-21.09-27.74-19.7-3.59.28-5.77,1.52-6.5,3.69-2,5.88,8.58,16.73,13.58,21.45v-2.79c-5.54-5.45-13-14-11.68-18,.45-1.33,2.05-2.11,4.76-2.32,16.61-1.28,25.67,18.32,25.76,18.52a1,1,0,1,0,1.82-.82Z" style="fill:#e0e0e0"></path><rect x="70" y="353" width="23" height="29" style="fill:#e0e0e0"></rect><rect x="70" y="352" width="24" height="4" style="fill:#f0f0f0"></rect><rect x="69" y="355" width="26" height="2" style="fill:#f5f5f5"></rect><path d="M83.38,355.66c-.25-.56-6.27-13.58-17.86-12.68-2.31.18-3.72,1-4.18,2.37-1.26,3.79,5.52,10.77,8.74,13.81v-1.79c-3.57-3.51-8.39-9-7.52-11.61.29-.86,1.32-1.36,3.06-1.5,10.7-.82,16.53,11.8,16.59,11.93a.64.64,0,0,0,.85.32A.64.64,0,0,0,83.38,355.66Z" style="fill:#e0e0e0"></path><rect x="108" y="348" width="27" height="34" style="fill:#e6e6e6"></rect><rect x="107" y="347" width="28" height="5" style="fill:#e0e0e0"></rect><rect x="107" y="350" width="29" height="3" style="fill:#f5f5f5"></rect><path d="M108,359.2v2.72c2-4,8.82-8.27,11.62-9.76a.77.77,0,0,0,.37-1,.83.83,0,0,0-1.09-.31C118.51,351,112,354.71,108,359.2Z" style="fill:#f0f0f0"></path><path d="M108,368.42v-2.23c0-.69-.57-1.43-.52-2.22a5.3,5.3,0,0,1,.67-2.05c2.06-4,8.75-8.27,11.55-9.76a.75.75,0,0,0,.33-1,.74.74,0,0,0-1-.31c-.39.2-7.25,3.87-10.82,8.36a8.88,8.88,0,0,0-2.23,4.68C105.87,365.58,107,367.11,108,368.42Z" style="fill:#fafafa"></path><rect x="213" y="353" width="23" height="29" style="fill:#e0e0e0"></rect><rect x="212" y="352" width="24" height="4" style="fill:#f0f0f0"></rect><rect x="211" y="355" width="26" height="2" style="fill:#f5f5f5"></rect><path d="M222.8,355.66c.25-.56,6.27-13.58,17.86-12.68,2.31.18,3.72,1,4.19,2.37,1.26,3.79-5.53,10.77-8.75,13.81v-1.79c3.57-3.51,8.39-9,7.52-11.61-.28-.86-1.31-1.36-3.06-1.5-10.69-.82-16.53,11.8-16.59,11.93a.64.64,0,1,1-1.17-.53Z" style="fill:#e0e0e0"></path><rect x="33" y="312" width="9" height="70" style="fill:#ebebeb"></rect><rect x="263" y="312" width="9" height="70" style="fill:#ebebeb"></rect><rect x="23" y="305" width="259" height="12" style="fill:#e0e0e0"></rect><rect x="67" y="107" width="98" height="122" style="fill:#e6e6e6"></rect><rect x="77" y="117" width="78" height="102" style="fill:#ebebeb"></rect><path d="M135,142.91c-10.35-13.47-43.94-14.41-44.47,7.59s12.5-.5,22.24,4.5S133.5,177,140,168,143,153.31,135,142.91Z" style="fill:#e6e6e6"></path><path d="M120.5,172c12.92,2.47,18.14,15.5,4.07,21s-33.07,1.75-23.07-2.62S112.65,170.5,120.5,172Z" style="fill:#e6e6e6"></path><path d="M111.5,171.23a5.75,5.75,0,1,1-5.75-5.75A5.75,5.75,0,0,1,111.5,171.23Z" style="fill:#f5f5f5"></path><rect x="349" y="96" width="3" height="10" style="fill:#e0e0e0"></rect><rect x="409" y="96" width="3" height="10" style="fill:#e0e0e0"></rect><rect x="330" y="93" width="102" height="6" style="fill:#e6e6e6"></rect><rect x="343" y="78" width="14" height="15" style="fill:#ebebeb"></rect><rect x="343" y="77" width="14" height="3" style="fill:#e6e6e6"></rect><rect x="342" y="78" width="16" height="1" style="fill:#e0e0e0"></rect><rect x="360" y="84" width="8" height="9" style="fill:#ebebeb"></rect><rect x="360" y="83" width="8" height="2" style="fill:#e6e6e6"></rect><rect x="379" y="63" width="1" height="25" style="fill:#ebebeb"></rect><path d="M379,57.58s3.08,4.09.5,6.34C379.5,63.92,376.5,62.25,379,57.58Z" style="fill:#ebebeb"></path><polygon points="383.38 82.42 385.67 64 387 64 384.58 83 383.38 82.42" style="fill:#ebebeb"></polygon><path d="M385.62,64a5.1,5.1,0,0,1,0-4.61l3.55.74S388.82,63,387,64Z" style="fill:#ebebeb"></path><path d="M383.38,85.5l-.71-19.17s1-2.16.35-3.33l-1-.25a2.9,2.9,0,0,0-.42,3.42L382.27,86Z" style="fill:#ebebeb"></path><rect x="376" y="76" width="12" height="17" style="fill:#e0e0e0"></rect><polygon points="421.33 93 398 93 398 91 401.96 90.79 417.15 88.56 421.33 93" style="fill:#e6e6e6"></polygon><path d="M402,93h-4V91l4-.21S403.42,92.08,402,93Z" style="fill:#e0e0e0"></path></g><g id="freepik--Shadow--inject-61"><ellipse id="freepik--path--inject-61" cx="250" cy="416.24" rx="193.89" ry="11.32" style="fill:#f5f5f5"></ellipse></g><g id="freepik--Artwork--inject-61"><polygon points="436 132.24 396 417.95 255.28 417.95 295.28 132.24 436 132.24" style="fill:#B721FF"></polygon><polygon points="429 132.24 389 417.95 255.28 417.95 295.28 132.24 429 132.24" style="fill:#fff;opacity:0.6000000000000001;isolation:isolate"></polygon><path d="M269.9,313.29s55.53-2.19,59.53,13-40.54,46.07,65,52.65L389,418H255Z" style="fill:#B721FF;opacity:0.2;isolation:isolate"></path><path d="M271.37,303s69.06-11.21,133.6.87l4.95-35.42S385.5,280.94,374.5,287s-21.1-10.47-27.3-12-14.77,14.39-22.49,14.7-14.88-7.2-22-6.2-30.67,15-30.67,15Z" style="fill:#fff;opacity:0.30000000000000004;isolation:isolate"></path><path d="M280.33,239s18-12.65,22.34-11.09,6.42,18.52,17.63,20.29,18.48-8.27,25.34.25S354,265.5,361.5,266s17-6,21,0,17,0,17,0-23.5,23.47-32,16.47-13.22-13-21.86-12.5-15.09,17-23.11,14.48-13.7-7.39-19.86-6.94S273,291.42,273,291.42Z" style="fill:#fff;opacity:0.2;isolation:isolate"></path><path d="M370,201.5l-.44-.27a10.8,10.8,0,0,0-1.3-.72,12.82,12.82,0,0,0-5.27-1.27,12.45,12.45,0,0,0-3.71.51,9.85,9.85,0,0,0-3.65,2,5,5,0,0,0-1.8,3.49,4.82,4.82,0,0,0,.1,1c0,.16.06.33.12.5l.2.72c.28,1,.56,1.78.92,2.72a19,19,0,0,0,2.8,5,10.51,10.51,0,0,0,1.9,1.83,5.69,5.69,0,0,0,2.09.83,4.91,4.91,0,0,0,.55,0,1.76,1.76,0,0,0,.56,0,5.87,5.87,0,0,1,.59-.05l.62-.16.31-.07.08,0,.15,0,.22-.07.9-.26c.6-.17,1.3-.34,1.93-.5a34.4,34.4,0,0,0,6.59-2,4.14,4.14,0,0,0,1.65-1.43A6.21,6.21,0,0,0,377,211a14.29,14.29,0,0,0,.22-1.56l.15-1.95c.06-1.24.12-2.51.11-3.79a35.33,35.33,0,0,0-.73-7.38,14.28,14.28,0,0,0-2.56-6,8.35,8.35,0,0,0-1-1.07l-.53-.48-.59-.4a7,7,0,0,0-1.26-.7l-.17-.09-.08,0,0,0,.15,0-.49-.17-1-.34a4.77,4.77,0,0,0-.79-.2l-.7-.17c-.51-.09-1.11-.16-1.66-.25l-1.72-.11-1.74,0a24.48,24.48,0,0,0-6.8,1.5,17.72,17.72,0,0,0-5.54,3.32c-.4.32-.63.7-1,1s-.51.69-.71,1.11l-.44.85-.31.7c-.21.41-.41,1-.62,1.51-.39,1.07-.73,2.22-1.15,3.48a13.8,13.8,0,0,1-2,4.2,10.78,10.78,0,0,1-1,1.06,8.15,8.15,0,0,1-1.18.87,7.67,7.67,0,0,1-1.26.61c-.41.14-.83.27-1.24.38a13,13,0,0,1-2.24.23H336l-.85-.08c-.57-.06-1.09-.09-1.69-.17l-2-.35c-.64-.16-1.27-.37-1.88-.58a17.87,17.87,0,0,1-1.69-.82l-1.28-.71c-.38-.18-.72-.34-1.1-.48l-.6-.17-.3-.08-.14-.05-.08,0,.2,0h0l-.73-.06h-.11l-.05,0h-.1s-.23,0-.38.08a2.15,2.15,0,0,0-.49.16l-.51.22-.52.3c-.7.39-1.4.89-2.1,1.37a20.26,20.26,0,0,1-4.41,2.54,6.75,6.75,0,0,1-4.61.15c-.32-.13-.63-.24-.94-.38l-.74-.41a14.1,14.1,0,0,1-1.34-.87,3.92,3.92,0,0,1-1.05-1c-.13-.2-.23-.53-.18-.47s-.22-.09-.35-.11c-1.28-.18-2-.25-2-.25l.51-.06c.34,0,.83-.11,1.51-.15a1.28,1.28,0,0,1,.66.11,1.06,1.06,0,0,1,.26.34.83.83,0,0,0,.13.18,3.66,3.66,0,0,0,1,.61c.41.19.86.34,1.36.52l.8.27.76.15a4.76,4.76,0,0,0,3.25-.72,21.51,21.51,0,0,0,3.44-2.81c.63-.59,1.28-1.21,2.07-1.84l.61-.47.7-.45a5.82,5.82,0,0,1,.79-.41,4,4,0,0,1,1-.36,7.18,7.18,0,0,1,1.15-.22l.73,0h.05l.29,0,.11,0,.21,0,.43.07.87.14a16.73,16.73,0,0,1,1.76.52l1.52.63c.47.22.82.28,1.22.43s.83.16,1.25.21l1.32.09,1.65,0,.85,0h.11s-.18,0-.07,0h.05l.16,0,.33,0a6.44,6.44,0,0,0,1.19-.23,1.93,1.93,0,0,0,1.15-.91,10.37,10.37,0,0,0,.84-2.47c.27-1.1.55-2.36.92-3.69.21-.68.37-1.31.66-2.06l.41-1.08.39-.88a14.21,14.21,0,0,1,2.83-4.15A23.36,23.36,0,0,1,353,181a29.45,29.45,0,0,1,9-2.31,24.9,24.9,0,0,1,9.8.91l1,.33.5.17.27.1.07,0,.16.08.31.14a14.61,14.61,0,0,1,2.39,1.3l1.14.77,1,.92a14.65,14.65,0,0,1,1.86,2,22.11,22.11,0,0,1,4,9.24,40.83,40.83,0,0,1,.72,9.11c0,1.47-.12,2.93-.26,4.4l-.24,2.11-.2,1.21a8.42,8.42,0,0,1-.27,1.22,13.15,13.15,0,0,1-2.31,5,11.14,11.14,0,0,1-4.46,3.45,22.09,22.09,0,0,1-4.42,1.34c-1.37.28-2.63.48-3.84.68-.6.11-1.13.19-1.74.32l-.91.19-.23,0-.22,0-.6.1a11.29,11.29,0,0,1-4.9-.14,11.47,11.47,0,0,1-4.26-2.22,14.29,14.29,0,0,1-2.75-3.21,23.89,23.89,0,0,1-2.8-6.71c-.28-1.06-.53-2.23-.69-3.21l-.12-.74c-.05-.31-.07-.64-.11-1a8.59,8.59,0,0,1,.11-1.9,8.09,8.09,0,0,1,1.46-3.29,9.42,9.42,0,0,1,2.33-2.16,11.84,11.84,0,0,1,5-1.79,14.28,14.28,0,0,1,4.35.18,12.67,12.67,0,0,1,5.34,2.45,11.33,11.33,0,0,1,1.13,1Z" style="fill:#fff;opacity:0.2;isolation:isolate"></path><path d="M368.5,163l.28-.07a6.22,6.22,0,0,1,.82-.16,5.9,5.9,0,0,1,3.24.48,25.51,25.51,0,0,1,4.07,2.81,4.41,4.41,0,0,0,2.24.87,4.08,4.08,0,0,0,1.24-.1,4.77,4.77,0,0,0,.63-.17l.81-.27c1.12-.37,2.19-.79,3.28-1.24s2.29-1,3.49-1.48a52,52,0,0,1,8.1-3.06,7.45,7.45,0,0,1,1.55-.18,6,6,0,0,1,1.66.19,6.65,6.65,0,0,1,2.89,1.61,36.51,36.51,0,0,0,2.93,3,2.57,2.57,0,0,0,1.15.45,3.28,3.28,0,0,0,.38.05l.41,0c.3,0,.61,0,.94,0a18.36,18.36,0,0,0,4-.65,13.7,13.7,0,0,0,3.6-1.45,4,4,0,0,0,1.87-1.92,1.84,1.84,0,0,0,0-1,3.75,3.75,0,0,0-.22-.64l-.45-.95a23.62,23.62,0,0,0-2-3.4,6.78,6.78,0,0,0-2.27-2.12,2.54,2.54,0,0,0-1.13-.27,4,4,0,0,0-1.3.27c-2.13.84-3.89,2.31-4,3.72a3.18,3.18,0,0,0,.74,2.17,6.19,6.19,0,0,0,2,1.55c1.46.74,3.18,1,3.73.21a2.13,2.13,0,0,0,.26-1.45,6,6,0,0,0-.29-1.26c-.11-.34-.21-.6-.28-.77l-.1-.27.17.23a6.54,6.54,0,0,1,.46.7,6,6,0,0,1,.6,1.24,2.7,2.7,0,0,1,0,2.05,2.19,2.19,0,0,1-1,1,3.69,3.69,0,0,1-1.35.39,7.27,7.27,0,0,1-2.92-.34,8.2,8.2,0,0,1-3-1.67,6,6,0,0,1-1.23-1.58,5.08,5.08,0,0,1-.62-2.17,6.29,6.29,0,0,1,1.66-4.33,11.57,11.57,0,0,1,3.55-2.72,7.62,7.62,0,0,1,2.55-.8,6.42,6.42,0,0,1,2.91.32,10.07,10.07,0,0,1,4.26,3.17,24.77,24.77,0,0,1,2.7,4l.56,1a8.21,8.21,0,0,1,.57,1.46,6.54,6.54,0,0,1,.06,3.49,7.32,7.32,0,0,1-1.65,3,11,11,0,0,1-2.29,1.88,19.17,19.17,0,0,1-4.9,2.06,22.77,22.77,0,0,1-5.1.77c-.45,0-.9,0-1.36,0-.25,0-.45,0-.74-.06l-.74-.12a7.65,7.65,0,0,1-3-1.32,23.27,23.27,0,0,1-3.33-3.5,2.22,2.22,0,0,0-.88-.61,2.77,2.77,0,0,0-1.11-.08c-.11,0-.33.07-.49.09l-.44.11-1,.24c-.65.16-1.3.38-1.94.54-1.29.38-2.56.8-3.82,1.22s-2.51.83-3.75,1.17-2.49.64-3.61.84l-.84.17a10.18,10.18,0,0,1-1,.13,6.05,6.05,0,0,1-2-.15,6.78,6.78,0,0,1-3-1.76c-1.44-1.43-2.29-2.72-3.35-3.43a5.7,5.7,0,0,0-2.74-1.07c-.35,0-.63-.05-.81-.05Z" style="fill:#fff;opacity:0.15;isolation:isolate"></path><path d="M298,162.5a1.22,1.22,0,0,0,.73.13,9.71,9.71,0,0,0,1.83-1.15,18.87,18.87,0,0,1,7.58-2.64,15.27,15.27,0,0,1,5.58.1c2,.39,3.85,1.34,5.32,1.17a4.09,4.09,0,0,0,.58-.09l.29-.07h0l0,0,.09,0,.19-.06a10.3,10.3,0,0,0,1.4-.51l.61-.27.66-.34,1.39-.74a12.51,12.51,0,0,1,3.39-1.29l.94-.14.4-.05.4,0c.26,0,.47-.07.71-.11l.77-.14a32,32,0,0,1,3.35-.5,8.75,8.75,0,0,1,3.83.43,5.68,5.68,0,0,1,1.79,1.12,6.34,6.34,0,0,1,1.22,1.61l.12.22,0,0v0l.05.1,0,.09.15.37.14.36.14.49a5.34,5.34,0,0,1,.19,1,5,5,0,0,1,.06.94,6.93,6.93,0,0,1-1,3.48,7.53,7.53,0,0,1-2.33,2.46,5.4,5.4,0,0,1-1.6.7,4.15,4.15,0,0,1-.93.11l-.69,0a15.14,15.14,0,0,1-2.68-.45,5.74,5.74,0,0,1-2.41-1.19,2.35,2.35,0,0,1-.74-1.28,1.72,1.72,0,0,1,0-.71,2.25,2.25,0,0,1,.16-.62,4.69,4.69,0,0,1,.53-1c.21-.27.37-.48.58-.71a6.45,6.45,0,0,1,1.24-1.13,1.89,1.89,0,0,1,1.34-.39,2,2,0,0,1,.91.42l.61.49-.7-.35a1.77,1.77,0,0,0-.84-.2,1.63,1.63,0,0,0-1,.5,5.53,5.53,0,0,0-.89,1.16c-.14.22-.3.52-.44.76a3.67,3.67,0,0,0-.28.76,1,1,0,0,0,.44,1.16,4.78,4.78,0,0,0,1.85.62,12.85,12.85,0,0,0,2.35.12l.64,0a1.38,1.38,0,0,0,.39-.09,2.89,2.89,0,0,0,.88-.49,5,5,0,0,0,1.92-4.05,2.38,2.38,0,0,0-.07-.59,2.57,2.57,0,0,0-.13-.53l-.07-.25-.16-.36-.16-.35,0-.09s0-.1,0,.06v0l0,0-.09-.12a3,3,0,0,0-1.61-1.4c-1.4-.53-3.47-.12-5.59.31l-.83.14-.9.12-.41,0-.23,0-.17,0-.67.08a9.76,9.76,0,0,0-2.62,1,22.82,22.82,0,0,1-3.05,1.4,13.56,13.56,0,0,1-1.56.48l-.43.12-.46.08a4.92,4.92,0,0,1-.94.1,8.39,8.39,0,0,1-3.39-.67c-.95-.37-1.77-.72-2.6-1a15.3,15.3,0,0,0-4.86-.57,21.5,21.5,0,0,0-7.48,1.46,7.67,7.67,0,0,1-2.1.79A1.2,1.2,0,0,1,298,162.5Z" style="fill:#fff;opacity:0.1;isolation:isolate"></path><path d="M271.37,303s79.41-5.45,133.4,2.25L394.88,376s-56.05-6.75-63.66-14.06,13.72-34.86,0-43.14S270,311,270,311Z" style="fill:#fff;opacity:0.4;isolation:isolate"></path><path d="M415.1,231.51s-9.43-3.83-18.51,1.08S389,248.51,376,245.25s-13.48-1.06-19.24.59-6.76-.33-6.76-.33,6,15.35,11,15.67,16.6-4.45,21.55-1.57,5.89,4.39,13.17,3.39S411,260.77,411,260.77Z" style="fill:#fff;opacity:0.1;isolation:isolate"></path><path d="M401,332.38s-12.65,5.37-22.31,0-8-13.34-15.34-15.53-21.19-1.18-21.19-1.18,18.19-1,21.86,5.66,1.67,15.49,12.33,17.25,23.72.42,23.72.42Z" style="fill:#fff;opacity:0.4;isolation:isolate"></path><path d="M345.64,337s-3.91,13.67,1.56,18,30.47,6.33,30.47,6.33-29.39.34-35.53-5.33S345.64,337,345.64,337Z" style="fill:#fff;opacity:0.4;isolation:isolate"></path><path d="M271,306.67s24.86-4.15,48,2.42c0,0-26.67-3.24-48,0Z" style="fill:#fff;opacity:0.4;isolation:isolate"></path><path d="M265.43,344.73s21.1-3.1,25.5,4.92-20.26,26.22,16.4,41.79,84,10,84,10L389,418,255.28,418Z" style="fill:#B721FF;opacity:0.2;isolation:isolate"></path><path d="M254.54,418.24l-2.51-.48s-1.92.57-.75,3.75h3.94Z" style="fill:#263238"></path><path d="M254.54,418.24s4.86-2.46,8.72-1.95,15.83-3,15.83-3l-.34,8.21a29.67,29.67,0,0,1-10.37.42,78.34,78.34,0,0,0-13.16-.42S254,419.69,254.54,418.24Z" style="fill:#B721FF"></path><path d="M290,420.15,298,423a7.71,7.71,0,0,1,4.66-1.44c2.94,0,5.51,1.35,8.76,0s3.91-5,3.91-5l-2.8-1.66s-.33,3.9-3.91,2.73S295.62,414.13,290,420.15Z" style="fill:#B721FF"></path><polygon points="312.5 414.9 313.85 412.48 316.54 414.01 315.3 416.56 312.5 414.9" style="fill:#263238"></polygon><path d="M290,420.15,298,423a7.71,7.71,0,0,1,4.66-1.44c2.94,0,5.51,1.35,8.76,0s3.91-5,3.91-5l-2.8-1.66s-.33,3.9-3.91,2.73S295.62,414.13,290,420.15Z" style="fill:#fff;opacity:0.2"></path><polygon points="358.93 421.51 369.22 412.48 377.13 414.9 383.2 413.44 386.27 414.9 402.19 403.75 413.26 408.14 419.59 405.38 424.87 414.52 430.67 416.24 434.1 421.66 358.93 421.51" style="fill:#B721FF"></polygon><polygon points="358.93 421.51 369.22 412.48 377.13 414.9 383.2 413.44 386.27 414.9 402.19 403.75 413.26 408.14 419.59 405.38 424.87 414.52 430.67 416.24 434.1 421.66 358.93 421.51" style="fill:#fff;opacity:0.8"></polygon><path d="M352.53,421.66l5.48-6.61,14.24,4.73h14l6.75-2.91s5.63-3.34,5.58-3.45,8.58,3.38,8.58,3.38l5.62,2.32H416l4.94,2.54Z" style="fill:#B721FF"></path><path d="M352.53,421.66l5.48-6.61,14.24,4.73h14l6.75-2.91s5.63-3.34,5.58-3.45,8.58,3.38,8.58,3.38l5.62,2.32H416l4.94,2.54Z" style="fill:#fff;opacity:0.9;isolation:isolate"></path><path d="M347.2,423.22s-4.75-2.22-4.55-3.25-2.77-5-3.76-5.7-3.38-.81-5.25-1.55-3.75,6.42-6.77,4.52S321.2,419,322.53,421l-2.23,2.2Z" style="fill:#B721FF"></path><path d="M347.2,423.22s-4.75-2.22-4.55-3.25-2.77-5-3.76-5.7-3.38-.81-5.25-1.55-3.75,6.42-6.77,4.52S321.2,419,322.53,421l-2.23,2.2Z" style="fill:#fff;opacity:0.8"></path><path d="M295.57,422l2.64-1.22s2.11-.28,2.77,2.42l-3.5.87Z" style="fill:#263238"></path><path d="M270,423.75l11,1.91s3.79-3.41,5.53-2.84c1.22.41,1.32,1.72,4.75,2s5.24.81,5.87-.78c.35-.91-1.65-2.07-1.65-2.07A8.28,8.28,0,0,1,289,419c-2.63-3.26-9.65-.69-12,1.24S270,423.75,270,423.75Z" style="fill:#B721FF"></path><path d="M270,423.75l11,1.91s3.79-3.41,5.53-2.84c1.22.41,1.32,1.72,4.75,2s5.24.81,5.87-.78c.35-.91-1.65-2.07-1.65-2.07A8.28,8.28,0,0,1,289,419c-2.63-3.26-9.65-.69-12,1.24S270,423.75,270,423.75Z" style="opacity:0.2;isolation:isolate"></path></g><g id="freepik--Character--inject-61"><g id="freepik--group--inject-61"><path d="M268,268.4c.52-1.18,18.17-5.65,18.17-5.65s1.37.41,1.43.81-1.08,1.13-1.08,1.13S266.55,271.57,268,268.4Z" style="fill:#263238"></path><path d="M295.73,259.63a8.52,8.52,0,0,1-3.9,4.23,9.26,9.26,0,0,1-5.35.83,1.35,1.35,0,0,0-.35-1.94s2-3.63,4.75-2.5a4.49,4.49,0,0,0,.87.26A5,5,0,0,0,295.73,259.63Z" style="fill:#B721FF"></path><path d="M275,265.49s-2.89,12-5.38,13.2a6.82,6.82,0,0,1-4.49.58s-.55.72-1.51,1.9c-4.33,5.33-16.93,20-24.34,20.05-9.06,0-28.26-5-28.26-5L218.54,285s13.89,6.59,17.21,7.12,24.95-16,24.95-16,3.91-10.68,4.44-10.62c.29,0,3.22,0,5.81,0Z" style="fill:#e4897b"></path><path d="M233.19,288.82l-11.42,12.29-2.61-.29L203,299.05l6.11-9.55,6.21-13.64C224.52,282.47,233.19,288.82,233.19,288.82Z" style="fill:#263238"></path><path d="M221.54,301.24l-17.79-1.95,6.75-10.53A110.61,110.61,0,0,0,221.54,301.24Z" style="opacity:0.2;isolation:isolate"></path><polygon points="159.51 403.14 172.43 404.58 184.34 405.9 183.14 395.83 183.14 395.8 183.13 395.81 182.27 395.8 172.92 395.7 163.34 395.61 159.51 403.14" style="fill:#e4897b"></polygon><polygon points="172.43 404.58 184.34 405.9 183.14 395.83 183.13 395.81 182.27 395.8 172.92 395.69 172.92 395.7 172.43 404.58" style="opacity:0.2;isolation:isolate"></polygon><polygon points="177.82 391.92 178.72 409 174.34 408.44 174.25 391.44 177.82 391.92" style="fill:#263238"></polygon><path d="M160.8,403.42l6.49-8.09a.75.75,0,0,0,0-.94l-4.88-6.07a1.27,1.27,0,0,0-2,0c-2.06,2.66-3.42,4.69-6.06,8-1.62,2-6.73,8-9,10.77s.23,5.37,1.4,4.43c5.24-4.24,9.89-6.86,12.68-7.32A2,2,0,0,0,160.8,403.42Z" style="fill:#263238"></path><path d="M160.8,403.42l6.49-8.09a.75.75,0,0,0,0-.94l-4.88-6.07a1.27,1.27,0,0,0-2,0c-2.06,2.66-3.42,4.69-6.06,8-1.62,2-6.73,8-9,10.77s.23,5.37,1.4,4.43c5.24-4.24,9.89-6.86,12.68-7.32A2,2,0,0,0,160.8,403.42Z" style="opacity:0.2;isolation:isolate"></path><path d="M174.51,329.19l2.3,31.13s2.32,2.25,5.56,5.59c8.34,8.55,22.78,24.27,20,27.79-3.8,4.9-16.47,3.73-16.47,3.73l-4.33,13-1,2.94.93.24a111.84,111.84,0,0,0,20.47,3c12.41.55,26.11-1.66,28.76-13.43,5.06-22.42-16.68-50.1-27-60-5.94-5.69-4.36-14-4.36-14Z" style="fill:#B721FF"></path><path d="M181.57,413.62a111.84,111.84,0,0,0,20.47,3A33.28,33.28,0,0,0,216.44,404c10.48-17.41-21.56-49.67-21.56-49.67v-7.55l-12.31,7.55-.2,11.55c8.34,8.55,22.78,24.27,20,27.79-3.8,4.9-16.47,3.73-16.47,3.73l-4.33,13Z" style="opacity:0.2;isolation:isolate"></path><path d="M159.51,403.14a.2.2,0,0,1,.23,0,.2.2,0,0,1,.1.2c0,.36-.45,3.57-1.42,4a.61.61,0,0,1-.66-.08,1.22,1.22,0,0,1-.58-1,2.57,2.57,0,0,1,.69-1.55A10,10,0,0,1,159.51,403.14Zm-.14.63a4.15,4.15,0,0,0-1.79,2.47.88.88,0,0,0,.4.67c.13.09.23.09.27,0a.55.55,0,0,0,.2-.17A8.22,8.22,0,0,0,159.37,403.77Z" style="fill:#B721FF"></path><path d="M159.51,403.07a.2.2,0,0,1,.21,0c.08.08,1.87,1.78,1.88,3.05a1.11,1.11,0,0,1-.33.83.68.68,0,0,1-.83.18c-.81-.43-1.21-2.94-1-3.92l.06-.08A.18.18,0,0,1,159.51,403.07Zm1.74,3.14a4.85,4.85,0,0,0-1.45-2.46c0,1.11.39,2.84.9,3.11,0,0,.18.1.34-.1l.06-.08A.67.67,0,0,0,161.25,406.21Z" style="fill:#B721FF"></path><polygon points="119.41 409.13 132.32 410.58 144.23 411.9 143.03 401.83 143.03 401.8 143.02 401.8 142.16 401.79 132.81 401.69 123.24 401.61 119.41 409.13" style="fill:#e4897b"></polygon><path d="M120.7,409.42l6.49-8.1a.77.77,0,0,0,0-.94l-4.88-6.07a1.26,1.26,0,0,0-1.77-.17.9.9,0,0,0-.19.2c-2.06,2.65-3.43,4.69-6.07,8-1.62,2-6.73,8-9,10.76s.23,5.38,1.4,4.44c5.23-4.24,9.88-6.86,12.68-7.33A2.12,2.12,0,0,0,120.7,409.42Z" style="fill:#263238"></path><path d="M119.41,409.13a.21.21,0,0,1,.23,0,.18.18,0,0,1,.09.2c0,.36-.44,3.57-1.41,4a.61.61,0,0,1-.66-.09,1.19,1.19,0,0,1-.59-1,2.57,2.57,0,0,1,.69-1.55A10.55,10.55,0,0,1,119.41,409.13Zm-.15.64a4.11,4.11,0,0,0-1.78,2.46.82.82,0,0,0,.39.67c.14.1.24.09.27.05a.44.44,0,0,0,.21-.17A8.41,8.41,0,0,0,119.26,409.77Z" style="fill:#B721FF"></path><path d="M119.41,409.06a.21.21,0,0,1,.2,0c.09.08,1.88,1.78,1.88,3.06a1.05,1.05,0,0,1-.33.83.65.65,0,0,1-.82.17c-.81-.42-1.21-2.93-1-3.92l.06-.07A.22.22,0,0,1,119.41,409.06Zm1.73,3.15a4.77,4.77,0,0,0-1.45-2.46c0,1.1.4,2.84.9,3.1,0,0,.18.1.34-.1l.06-.08A.64.64,0,0,0,121.14,412.21Z" style="fill:#B721FF"></path><polygon points="132.32 410.58 144.23 411.9 143.03 401.83 143.02 401.8 142.16 401.79 132.81 401.69 132.81 401.69 132.32 410.58" style="opacity:0.2;isolation:isolate"></polygon><path d="M183.27,326.93c2.67,12.29,29.67,70.36,12.62,85.81-12.53,11.34-59.26.64-59.26.64l-.72-14.16s36.77,1.21,40.64-3.05-18.83-36.39-22-45.15c-5.59-15.55,2.93-24.73,2.93-24.73Z" style="fill:#B721FF"></path><polygon points="137.71 397.92 138.62 415 134.24 414.44 134.14 397.43 137.71 397.92" style="fill:#263238"></polygon><path d="M217.09,277.81C200,308.55,200,334,200,334l-47.87.35s.83-19.1,3.25-30.31a112.81,112.81,0,0,1,9.43-27.54c4.39-8.59,8.16-12.13,8.16-12.13,2-.79,10.51-.07,16.56,1.6,8.46,2.33,19,4.17,23.67,7.5C218.24,277.06,217.09,277.81,217.09,277.81Z" style="fill:#263238"></path><path d="M205.09,282.32c-4.24,1.59-.56,6-1.54,8s-8.86,6.62-6.67,8.59,2.78,2.57,2.05,6.53,1.14-.39,1.87-3.56,3-.56,4.29-2.9.57-5.15,3-5.38,1.17-5.17,1.57-6.95S207.08,281.57,205.09,282.32Z" style="fill:#B721FF"></path><path d="M165.84,316.21c2.7-2.23,6.12-2,7.17,0s4.73,7.12,5.6,5.73,2.17-.19,1.52,1.59-2,3,0,4.15.93,3.56-1.34,3.17-2.8,2.77-4.2,2.17a14.24,14.24,0,0,0-6.94-1.58c-3.21.2-7.59,1.58-6.19-1s3.15-5.33.7-6-.87-3.07,1.75-2.08S164.33,317.45,165.84,316.21Z" style="fill:#B721FF"></path><path d="M173,289.44c-4.47,13.84-13,15-17.59,14.63a112.81,112.81,0,0,1,9.43-27.54C171,278.21,175.43,281.89,173,289.44Z" style="opacity:0.2;isolation:isolate"></path><path d="M155.62,277.58s-12.93,13.91-15.18,15.49-9.28-4.75-9.28-4.75l-7.32,4.75s6.71,7.52,13.42,10.66S162.53,287,162.53,287Z" style="fill:#e4897b"></path><path d="M173,264.4c5.95-1.54-.5,24.81-.5,24.81l-14.62,10.48L146,285.25S158.93,268,173,264.4Z" style="fill:#263238"></path><path d="M121.4,265.34c6.81.92-4.22,6.2,0,9.22s20,11,7.65,20.19-38.24,6.9-44.05-5.53S93.44,261.54,121.4,265.34Z" style="fill:#263238"></path><path d="M121.4,265.34c6.81.92-4.22,6.2,0,9.22s20,11,7.65,20.19-38.24,6.9-44.05-5.53S93.44,261.54,121.4,265.34Z" style="fill:#fff;opacity:0.4"></path><path d="M105.43,269.23c4.66-1.18,6.13-1,6.92,1.59s1.39,3.88-1.77,4.43-7.72,2.41-7.52,0-3.56-.07-2.18-3S102.3,270,105.43,269.23Z" style="fill:#fff"></path><path d="M115.52,285.12c-3.1-2.11-5.47-4-2.54-5.1s4.72-.65,6.69-.46,3.76-.14,5.15,3,.39,6.44-3.37,6.08S117.27,286.31,115.52,285.12Z" style="fill:#B721FF"></path><path d="M93.56,288.66c.46-2.94,1.39-3.8,4.55-4.67s8,1.38,8.67,2.33,5.77,1.74,3.6,3.92-3.56,4.11-7.32,3.24S92.77,293.8,93.56,288.66Z" style="fill:#B721FF"></path><path d="M91.78,277.07c2.7-2.35,3.37-4.15,5.54-1.82s2.57,5.49,0,5.89-6.33,4.21-7.12,1.41S88.73,279.73,91.78,277.07Z" style="fill:#B721FF"></path><path d="M116.9,293.7c-3.26-2.86-3-4.25,0-4.05s7.86.08,5.81,2.41S120.86,297.15,116.9,293.7Z" style="fill:#B721FF"></path><path d="M105,281.54c-1.83-.07-3-2.18,0-2.67S110.38,281.73,105,281.54Z" style="fill:#B721FF"></path><path d="M105,281.54c-1.83-.07-3-2.18,0-2.67S110.38,281.73,105,281.54Z" style="fill:#fff;opacity:0.2"></path><path d="M93.56,288.66c.46-2.94,1.39-3.8,4.55-4.67s8,1.38,8.67,2.33,5.77,1.74,3.6,3.92-3.56,4.11-7.32,3.24S92.77,293.8,93.56,288.66Z" style="fill:#fff;opacity:0.4"></path><path d="M116.9,293.7c-3.26-2.86-3-4.25,0-4.05s7.86.08,5.81,2.41S120.86,297.15,116.9,293.7Z" style="opacity:0.2;isolation:isolate"></path><path d="M91.78,277.07c2.7-2.35,3.37-4.15,5.54-1.82s2.57,5.49,0,5.89-6.33,4.21-7.12,1.41S88.73,279.73,91.78,277.07Z" style="fill:#fff;opacity:0.6000000000000001"></path><path d="M206.75,260.42a24.16,24.16,0,0,0-3.9,7.22,28,28,0,0,0-.85,2.78A15.72,15.72,0,0,1,187.58,266c5.19-2.45,6.76-6.06,7.28-8.31a7.13,7.13,0,0,0,.14-2v-.06l.3.1Z" style="fill:#e4897b"></path><path d="M206.75,260.42a24.16,24.16,0,0,0-3.9,7.22c-5.79-2.27-6.32-7.88-6.8-10.67a1.54,1.54,0,0,0-1.3-1.35l.4.06.23,0Z" style="opacity:0.2;isolation:isolate"></path><path d="M185.23,233.76s-7.2-4.69-9.18,2.83,3.17,9.44,3.17,9.44-1.69-9.45,6-9.44Z" style="fill:#263238"></path><path d="M214.44,233.32s4.47,8.72,0,15S203,233.86,203,233.86Z" style="fill:#263238"></path><path d="M214.44,233.32s4.47,8.72,0,15S203,233.86,203,233.86Z" style="fill:#fff;opacity:0.2"></path><path d="M199.2,262.13a13.4,13.4,0,0,0,1.07.86,10.64,10.64,0,0,0,12.93,0,11.85,11.85,0,0,0,4.66-7.42,9.9,9.9,0,0,0,.18-1.25,26.07,26.07,0,0,0,.07-2.69c-.2-7.65-3.52-17.56-11.27-19.37a11.59,11.59,0,0,0-14,13.93C194.53,253.81,195.24,258.61,199.2,262.13Z" style="fill:#e4897b"></path><path d="M205.92,246.52c.06.68.55,1.18,1,1.1s.72-.68.62-1.36-.56-1.17-1-1.1S205.82,245.83,205.92,246.52Z" style="fill:#263238"></path><path d="M213.61,245.31c.06.68.56,1.17,1,1.1s.71-.69.61-1.36-.56-1.18-1-1.11S213.51,244.66,213.61,245.31Z" style="fill:#263238"></path><path d="M211.22,246a24.63,24.63,0,0,0,4.17,5.3,4,4,0,0,1-3.17,1.13Z" style="fill:#de5753"></path><path d="M203.14,244.41a.45.45,0,0,0,.37-.22,3.25,3.25,0,0,1,2.34-1.74.41.41,0,0,0,.37-.44.4.4,0,0,0-.44-.36h0a4,4,0,0,0-3,2.16.39.39,0,0,0,.15.54h0A.67.67,0,0,0,203.14,244.41Z" style="fill:#263238"></path><path d="M216.5,242.13a.4.4,0,0,0,.24,0,.41.41,0,0,0,.11-.56h0a4,4,0,0,0-3.23-1.79.4.4,0,0,0-.39.41h0a.42.42,0,0,0,.42.39h0a3.24,3.24,0,0,1,2.53,1.46A.44.44,0,0,0,216.5,242.13Z" style="fill:#263238"></path><path d="M195.59,251.64c-.71.37.81,6.93.81,6.93s-3.53-1.05-6.26-6.2c-5.39-10.16-4.1-12.93-1.71-15.13,4.45-4.09,12.25.34,12.25.34-2.36,0-4.08,2.46-2.78,4.49,1.82,2.82,1.06,8-.9,10.34C197,252.41,196.65,251.09,195.59,251.64Z" style="fill:#263238"></path><path d="M211.67,256.16h0a6.23,6.23,0,0,1-5.64-1,.22.22,0,0,1,0-.31.21.21,0,0,1,.29,0h0a5.91,5.91,0,0,0,5.24.89.21.21,0,0,1,.27.13v0a.2.2,0,0,1-.13.26Z" style="fill:#263238"></path><path d="M200.68,237.58s9,.34,12.91-1a3.6,3.6,0,0,0,1.48-2.55c.32-3.69-5.65-9.77-15.21-9.39-14.39.56-20.67,15.62-11.59,23.92C188.27,248.56,189.17,237.19,200.68,237.58Z" style="fill:#263238"></path><path d="M195.59,251.64c-.71.37.81,6.93.81,6.93s-3.53-1.05-6.26-6.2c-5.39-10.16-4.1-12.93-1.71-15.13,4.45-4.09,12.25.34,12.25.34-2.36,0-4.08,2.46-2.78,4.49,1.82,2.82,1.06,8-.9,10.34C197,252.41,196.65,251.09,195.59,251.64Z" style="fill:#fff;opacity:0.2"></path><path d="M190.31,253.62a8,8,0,0,0,5.19,3.3c2.78.47,3.88-2.1,2.86-4.57-.92-2.2-3.48-5.16-6.16-4.47S188.83,251.46,190.31,253.62Z" style="fill:#e4897b"></path><path d="M210.6,253.48s-3.89-1.75-5.86-1.11-5,8-4.06,10.92,8.08,4.69,11.77,1.89,3.28-11,2-11.57a5.37,5.37,0,0,0-3.2,0v.86s2.22-1.19,2.81.33.46,6.79-1.78,6.92-1.65-3.15-1.65-3.15l-1.7-.25s.26,3.2-2.68,3.07-3.35-4.83-1.22-6.92,5.14-.14,5.14-.14Z" style="fill:#263238"></path><path d="M295.73,259.63a8.52,8.52,0,0,1-3.9,4.23,5.27,5.27,0,0,0,.5-1.21c.2-.94-3.33-.44-1.4-1.27a1.34,1.34,0,0,0,.82-.87A5,5,0,0,0,295.73,259.63Z" style="fill:#fff;opacity:0.30000000000000004;isolation:isolate"></path></g></g></svg>